<svg id="SvgjsSvg1001" width="288" height="288" xmlns="http://www.w3.org/2000/svg" version="1.1" xmlns:xlink="http://www.w3.org/1999/xlink" xmlns:svgjs="http://svgjs.com/svgjs"><defs id="SvgjsDefs1002"></defs><g id="SvgjsG1008"><svg xmlns="http://www.w3.org/2000/svg" version="1.0" viewBox="0 0 145 145" width="288" height="288"><path d="M575 1436 c-152 -36 -253 -92 -360 -200 -90 -91 -135 -161 -172 -267-108 -311 9 -666 276 -844 131 -86 247 -120 411 -120 226 1 411 86 558 259 58
69 129 214 148 306 24 112 15 281 -20 385 -77 229 -253 398 -486 470 -76 23
-277 29 -355 11z m242 -193 c23 -43 53 -111 67 -150 l26 -73 -144 0 -143 0
-26 39 -26 39 40 82 c61 127 73 140 123 140 l42 0 41 -77z m-319 19 c-49 -119
-61 -138 -96 -157 -20 -11 -46 -34 -57 -52 -18 -30 -24 -32 -72 -33 -29 0 -53
4 -53 9 0 15 75 105 121 145 65 56 168 114 157 88z m641 -115 c34 -35 71 -77
83 -95 l20 -33 -96 3 -97 3 -29 88 c-17 48 -37 101 -45 117 -8 16 -15 32 -15
35 0 18 126 -65 179 -118z m-784 -284 c15 -22 19 -51 20 -160 l1 -133 -107 0
c-60 0 -110 4 -113 9 -16 26 -24 151 -15 221 6 41 13 78 15 82 3 5 45 8 93 8
85 0 89 -1 106 -27z m589 -25 c3 -29 6 -83 6 -119 0 -64 -1 -67 -29 -79 -16
-6 -41 -25 -57 -41 l-28 -29 -161 0 -162 0 -7 88 c-9 120 -2 148 41 169 19 9
41 27 50 39 15 24 18 24 178 24 l162 0 7 -52z m367 -5 c11 -57 8 -209 -6 -245
-6 -15 -21 -18 -94 -18 -79 0 -90 2 -110 24 -20 21 -22 34 -24 160 l-3 136
112 0 113 0 12 -57z m-881 -483 c15 -47 35 -102 44 -122 9 -21 13 -38 9 -38
-5 0 -32 14 -62 31 -58 33 -165 137 -194 188 l-19 32 97 -3 97 -3 28 -85z
m429 49 l24 -31 -23 -56 c-13 -31 -40 -85 -59 -119 -36 -62 -36 -63 -81 -63
l-45 0 -41 78 c-23 42 -54 110 -68 150 l-26 72 148 -1 147 0 24 -30z m370 9
c-22 -42 -163 -173 -217 -202 -29 -15 -55 -26 -57 -24 -2 1 12 38 30 82 26 64
38 81 63 92 16 7 40 26 53 43 21 29 27 31 81 31 58 0 59 0 47 -22z" transform="matrix(.1 0 0 -.1 0 145)" fill="#fd2d01" class="color000 svgShape"></path></svg></g></svg>